<?xml version="1.0" encoding="UTF-8" standalone="no"?>
<!-- Created with Inkscape (http://www.inkscape.org/) -->

<svg
   version="1.1"
   id="svg1"
   width="252.71867"
   height="24.425333"
   viewBox="0 0 252.71867 24.425333"
   xmlns="http://www.w3.org/2000/svg"
   xmlns:svg="http://www.w3.org/2000/svg">
  <defs
     id="defs1" />
  <g
     id="g1">
    <g
       id="g2"
       aria-label="H&#10;3"
       transform="matrix(1.3333333,0,0,1.3333333,49.038667,17.572)">
      <path
         id="path2"
         d="m 7.6057656,-6.0364219 c 0.082031,-0.3632812 0.1054688,-0.4570312 0.8320313,-0.4570312 0.2578125,0 0.3398437,0 0.3398437,-0.1992188 0,-0.1171875 -0.1054687,-0.1171875 -0.140625,-0.1171875 -0.28125,0 -0.9960937,0.035156 -1.2773437,0.035156 -0.28125,0 -0.9960938,-0.035156 -1.2773438,-0.035156 -0.082031,0 -0.1992187,0 -0.1992187,0.1992188 0,0.1171875 0.09375,0.1171875 0.28125,0.1171875 0.023437,0 0.2109375,0 0.375,0.011719 0.1875,0.023437 0.2695312,0.035156 0.2695312,0.1640625 0,0.035156 0,0.058594 -0.035156,0.1875 l -0.5976563,2.4375 H 3.1409219 l 0.5859375,-2.34375 c 0.09375,-0.3632812 0.1171875,-0.4570312 0.8320312,-0.4570312 0.2578125,0 0.3398438,0 0.3398438,-0.1992188 0,-0.1171875 -0.1054688,-0.1171875 -0.140625,-0.1171875 -0.2695313,0 -0.9960938,0.035156 -1.265625,0.035156 -0.2929688,0 -0.9960938,-0.035156 -1.2890625,-0.035156 -0.082031,0 -0.1875,0 -0.1875,0.1992188 0,0.1171875 0.082031,0.1171875 0.28125,0.1171875 0.011719,0 0.1992187,0 0.375,0.011719 0.1757812,0.023437 0.2695312,0.035156 0.2695312,0.1640625 0,0.035156 -0.011719,0.070312 -0.046875,0.1875 l -1.3359375,5.35546877 c -0.09375,0.38671875 -0.1171875,0.46875 -0.90234373,0.46875 -0.17578125,0 -0.26953125,0 -0.26953125,0.19921875 0,0.10546875 0.1171875,0.10546875 0.140625,0.10546875 0.28125,0 0.98437498,-0.03515625 1.26562498,-0.03515625 0.2109375,0 0.4335938,0.01171875 0.6328125,0.01171875 0.2226563,0 0.4453125,0.0234375 0.65625,0.0234375 0.070312,0 0.1992188,0 0.1992188,-0.19921875 0,-0.10546875 -0.09375,-0.10546875 -0.28125,-0.10546875 -0.375,0 -0.6445313,0 -0.6445313,-0.1875 0,-0.0585938 0.011719,-0.10546875 0.023437,-0.1640625 l 0.679688,-2.73046937 h 3.0351563 c -0.4101563,1.6523438 -0.6445313,2.60156252 -0.6796875,2.75390627 -0.1054688,0.31640625 -0.2929688,0.328125 -0.9140625,0.328125 -0.1523438,0 -0.234375,0 -0.234375,0.19921875 0,0.10546875 0.1171875,0.10546875 0.140625,0.10546875 0.28125,0 0.984375,-0.03515625 1.265625,-0.03515625 0.2109375,0 0.421875,0.01171875 0.6328125,0.01171875 0.2226562,0 0.4335937,0.0234375 0.6445312,0.0234375 0.082031,0 0.1992188,0 0.1992188,-0.19921875 0,-0.10546875 -0.082031,-0.10546875 -0.2695313,-0.10546875 -0.375,0 -0.65625,0 -0.65625,-0.1875 0,-0.0585938 0.023437,-0.10546875 0.035156,-0.1640625 z m 0,0"
         style="fill:#000000;fill-opacity:1;fill-rule:nonzero;stroke:none" />
      <path
         id="path3"
         d="m 10.178031,-0.83915625 c 0.550781,0 0.9375,0.375 0.9375,1.125 0,0.86718745 -0.503906,1.12499995 -0.902344,1.12499995 -0.2812495,0 -0.8906245,-0.082031 -1.1835933,-0.49218745 0.328125,-0.0117188 0.3984375,-0.24609375 0.3984375,-0.38671875 0,-0.22265625 -0.1640625,-0.38671875 -0.3867187,-0.38671875 -0.1875,0 -0.3867188,0.1171875 -0.3867188,0.41015625 0,0.65625 0.7265625,1.078125 1.5703123,1.078125 0.972656,0 1.640625,-0.64453125 1.640625,-1.34765625 0,-0.5390625 -0.445312,-1.08984375 -1.21875,-1.2421875 0.738281,-0.26953125 0.996094,-0.79687505 0.996094,-1.21875005 0,-0.5507812 -0.632813,-0.9609375 -1.40625,-0.9609375 -0.7734375,0 -1.359375,0.375 -1.359375,0.9375 0,0.234375 0.1523437,0.3632813 0.3632812,0.3632813 0.2109375,0 0.3515625,-0.1640625 0.3515625,-0.3515625 0,-0.1992188 -0.140625,-0.3515625 -0.3515625,-0.3632813 0.234375,-0.3046875 0.7148438,-0.3867187 0.9726558,-0.3867187 0.316407,0 0.761719,0.1523437 0.761719,0.7617187 0,0.2929688 -0.105469,0.609375 -0.28125,0.8320313 -0.234375,0.2578125 -0.421875,0.28125 -0.7734373,0.2929687 -0.1757812,0.023437 -0.1875,0.023437 -0.2226562,0.023437 -0.011719,0 -0.070312,0.011719 -0.070312,0.09375 0,0.09375 0.058594,0.09375 0.1757812,0.09375 z m 0,0"
         style="fill:#000000;fill-opacity:1;fill-rule:nonzero;stroke:none" />
    </g>
    <g
       id="g3"
       aria-label="H&#10;2"
       transform="matrix(1.3333333,0,0,1.3333333,109.35867,17.572)">
      <path
         id="path4"
         d="m 7.606,-6.0364219 c 0.082031,-0.3632812 0.1054687,-0.4570312 0.8320312,-0.4570312 0.2578125,0 0.3398438,0 0.3398438,-0.1992188 0,-0.1171875 -0.1054688,-0.1171875 -0.140625,-0.1171875 -0.28125,0 -0.9960938,0.035156 -1.2773438,0.035156 -0.28125,0 -0.9960937,-0.035156 -1.2773437,-0.035156 -0.082031,0 -0.1992188,0 -0.1992188,0.1992188 0,0.1171875 0.09375,0.1171875 0.28125,0.1171875 0.023437,0 0.2109375,0 0.375,0.011719 0.1875,0.023437 0.2695313,0.035156 0.2695313,0.1640625 0,0.035156 0,0.058594 -0.035156,0.1875 l -0.5976562,2.4375 H 3.1411562 l 0.5859375,-2.34375 c 0.09375,-0.3632812 0.1171875,-0.4570312 0.8320313,-0.4570312 0.2578125,0 0.3398437,0 0.3398437,-0.1992188 0,-0.1171875 -0.1054687,-0.1171875 -0.140625,-0.1171875 -0.2695312,0 -0.9960937,0.035156 -1.265625,0.035156 -0.2929687,0 -0.9960937,-0.035156 -1.2890625,-0.035156 -0.082031,0 -0.1875,0 -0.1875,0.1992188 0,0.1171875 0.082031,0.1171875 0.28125,0.1171875 0.011719,0 0.1992188,0 0.375,0.011719 0.1757813,0.023437 0.2695313,0.035156 0.2695313,0.1640625 0,0.035156 -0.011719,0.070312 -0.046875,0.1875 L 1.559125,-0.77470313 c -0.09375,0.38671875 -0.1171875,0.46875 -0.90234375,0.46875 -0.17578125,0 -0.26953125,0 -0.26953125,0.19921875 0,0.10546875 0.1171875,0.10546875 0.140625,0.10546875 0.28125,0 0.984375,-0.03515625 1.265625,-0.03515625 0.2109375,0 0.4335937,0.01171875 0.6328125,0.01171875 0.2226562,0 0.4453125,0.0234375 0.65625,0.0234375 0.070312,0 0.1992187,0 0.1992187,-0.19921875 0,-0.10546875 -0.09375,-0.10546875 -0.28125,-0.10546875 -0.375,0 -0.6445312,0 -0.6445312,-0.1875 0,-0.0585938 0.011719,-0.10546875 0.023437,-0.1640625 L 3.059125,-3.3879844 H 6.0942812 C 5.684125,-1.7356406 5.44975,-0.78642188 5.4145937,-0.63407813 c -0.1054687,0.31640625 -0.2929687,0.328125 -0.9140625,0.328125 -0.1523437,0 -0.234375,0 -0.234375,0.19921875 0,0.10546875 0.1171875,0.10546875 0.140625,0.10546875 0.28125,0 0.984375,-0.03515625 1.265625,-0.03515625 0.2109375,0 0.421875,0.01171875 0.6328125,0.01171875 0.2226563,0 0.4335938,0.0234375 0.6445313,0.0234375 0.082031,0 0.1992187,0 0.1992187,-0.19921875 0,-0.10546875 -0.082031,-0.10546875 -0.2695312,-0.10546875 -0.375,0 -0.65625,0 -0.65625,-0.1875 0,-0.0585938 0.023437,-0.10546875 0.035156,-0.1640625 z m 0,0"
         style="fill:#000000;fill-opacity:1;fill-rule:nonzero;stroke:none" />
      <path
         id="path5"
         d="m 11.795453,0.22725 h -0.234375 c -0.02344,0.15234375 -0.08203,0.5625 -0.175781,0.6328125 -0.05859,0.0351563 -0.597656,0.0351563 -0.691406,0.0351563 H 9.4048281 c 0.7382809,-0.64453125 0.9843749,-0.84375 1.3945309,-1.171875 0.515625,-0.41015625 0.996094,-0.84375 0.996094,-1.5 0,-0.84375 -0.738281,-1.359375 -1.628906,-1.359375 -0.8671876,0 -1.4531251,0.609375 -1.4531251,1.2421875 0,0.3632813 0.3046875,0.3984375 0.375,0.3984375 0.1640625,0 0.375,-0.1171875 0.375,-0.375 0,-0.1289062 -0.058594,-0.3632812 -0.421875,-0.3632812 0.2226562,-0.5039063 0.6914062,-0.65625 1.0195311,-0.65625 0.703125,0 1.066406,0.5507812 1.066406,1.1132812 0,0.609375 -0.433593,1.08984375 -0.65625,1.3359375 L 8.7837344,1.2233437 c -0.070312,0.058594 -0.070312,0.070312 -0.070312,0.2695313 h 2.8828126 z m 0,0"
         style="fill:#000000;fill-opacity:1;fill-rule:nonzero;stroke:none" />
    </g>
    <g
       id="g5"
       aria-label="H&#10;1"
       transform="matrix(1.3333333,0,0,1.3333333,169.67867,17.572)">
      <path
         id="path6"
         d="m 7.6062344,-6.0364219 c 0.082031,-0.3632812 0.1054687,-0.4570312 0.8320312,-0.4570312 0.2578125,0 0.3398438,0 0.3398438,-0.1992188 0,-0.1171875 -0.1054688,-0.1171875 -0.140625,-0.1171875 -0.28125,0 -0.9960938,0.035156 -1.2773438,0.035156 -0.28125,0 -0.9960937,-0.035156 -1.2773437,-0.035156 -0.082031,0 -0.1992188,0 -0.1992188,0.1992188 0,0.1171875 0.09375,0.1171875 0.28125,0.1171875 0.023437,0 0.2109375,0 0.375,0.011719 0.1875,0.023437 0.2695313,0.035156 0.2695313,0.1640625 0,0.035156 0,0.058594 -0.035156,0.1875 l -0.5976562,2.4375 H 3.1413906 l 0.5859375,-2.34375 c 0.09375,-0.3632812 0.1171875,-0.4570312 0.8320313,-0.4570312 0.2578125,0 0.3398437,0 0.3398437,-0.1992188 0,-0.1171875 -0.1054687,-0.1171875 -0.140625,-0.1171875 -0.2695312,0 -0.9960937,0.035156 -1.265625,0.035156 -0.2929687,0 -0.9960937,-0.035156 -1.2890625,-0.035156 -0.082031,0 -0.1875,0 -0.1875,0.1992188 0,0.1171875 0.082031,0.1171875 0.28125,0.1171875 0.011719,0 0.1992188,0 0.375,0.011719 0.1757813,0.023437 0.2695313,0.035156 0.2695313,0.1640625 0,0.035156 -0.011719,0.070312 -0.046875,0.1875 l -1.3359375,5.35546877 c -0.09375,0.38671875 -0.1171875,0.46875 -0.90234377,0.46875 -0.17578125,0 -0.26953125,0 -0.26953125,0.19921875 0,0.10546875 0.1171875,0.10546875 0.140625,0.10546875 0.28125,0 0.98437502,-0.03515625 1.26562502,-0.03515625 0.2109375,0 0.4335937,0.01171875 0.6328125,0.01171875 0.2226562,0 0.4453125,0.0234375 0.65625,0.0234375 0.070312,0 0.1992187,0 0.1992187,-0.19921875 0,-0.10546875 -0.09375,-0.10546875 -0.28125,-0.10546875 -0.375,0 -0.6445312,0 -0.6445312,-0.1875 0,-0.0585938 0.011719,-0.10546875 0.023437,-0.1640625 l 0.679688,-2.73046937 h 3.0351562 c -0.4101562,1.6523438 -0.6445312,2.60156252 -0.6796875,2.75390627 -0.1054687,0.31640625 -0.2929687,0.328125 -0.9140625,0.328125 -0.1523437,0 -0.234375,0 -0.234375,0.19921875 0,0.10546875 0.1171875,0.10546875 0.140625,0.10546875 0.28125,0 0.984375,-0.03515625 1.265625,-0.03515625 0.2109375,0 0.421875,0.01171875 0.6328125,0.01171875 0.2226563,0 0.4335938,0.0234375 0.6445313,0.0234375 0.082031,0 0.1992187,0 0.1992187,-0.19921875 0,-0.10546875 -0.082031,-0.10546875 -0.2695312,-0.10546875 -0.375,0 -0.65625,0 -0.65625,-0.1875 0,-0.0585938 0.023437,-0.10546875 0.035156,-0.1640625 z m 0,0"
         style="fill:#000000;fill-opacity:1;fill-rule:nonzero;stroke:none" />
      <path
         id="path7"
         d="m 10.612094,-2.9368125 c 0,-0.1875 -0.01172,-0.1992188 -0.210938,-0.1992188 -0.4453122,0.4335938 -1.0781247,0.4453125 -1.3593747,0.4453125 v 0.2460938 c 0.1640625,0 0.6210937,0 1.0078127,-0.1875 v 3.55078125 c 0,0.23437495 0,0.32812495 -0.6914065,0.32812495 H 9.0886563 V 1.492875 C 9.2175625,1.481156 10.073031,1.469438 10.330844,1.469438 c 0.210937,0 1.089844,0.011719 1.242187,0.023437 V 1.2467812 h -0.257812 c -0.703125,0 -0.703125,-0.09375 -0.703125,-0.32812495 z m 0,0"
         style="fill:#000000;fill-opacity:1;fill-rule:nonzero;stroke:none" />
    </g>
    <g
       id="g7"
       aria-label="H&#10;0"
       transform="matrix(1.3333333,0,0,1.3333333,229.99867,17.572)">
      <path
         id="path8"
         d="M 7.6064688,-6.0364219 C 7.6885,-6.3997031 7.7119375,-6.4934531 8.4385,-6.4934531 c 0.2578125,0 0.3398438,0 0.3398438,-0.1992188 0,-0.1171875 -0.1054688,-0.1171875 -0.140625,-0.1171875 -0.28125,0 -0.9960938,0.035156 -1.2773438,0.035156 -0.28125,0 -0.9960937,-0.035156 -1.2773437,-0.035156 -0.082031,0 -0.1992188,0 -0.1992188,0.1992188 0,0.1171875 0.09375,0.1171875 0.28125,0.1171875 0.023437,0 0.2109375,0 0.375,0.011719 0.1875,0.023437 0.2695313,0.035156 0.2695313,0.1640625 0,0.035156 0,0.058594 -0.035156,0.1875 l -0.5976562,2.4375 H 3.141625 l 0.5859375,-2.34375 c 0.09375,-0.3632812 0.1171875,-0.4570312 0.8320313,-0.4570312 0.2578125,0 0.3398437,0 0.3398437,-0.1992188 0,-0.1171875 -0.1054687,-0.1171875 -0.140625,-0.1171875 -0.2695312,0 -0.9960937,0.035156 -1.265625,0.035156 -0.2929687,0 -0.9960937,-0.035156 -1.2890625,-0.035156 -0.082031,0 -0.1875,0 -0.1875,0.1992188 0,0.1171875 0.082031,0.1171875 0.28125,0.1171875 0.011719,0 0.1992188,0 0.375,0.011719 0.1757813,0.023437 0.2695313,0.035156 0.2695313,0.1640625 0,0.035156 -0.011719,0.070312 -0.046875,0.1875 l -1.3359375,5.35546877 c -0.09375,0.38671875 -0.1171875,0.46875 -0.9023438,0.46875 -0.17578125,0 -0.26953125,0 -0.26953125,0.19921875 0,0.10546875 0.1171875,0.10546875 0.140625,0.10546875 0.28125,0 0.98437505,-0.03515625 1.26562505,-0.03515625 0.2109375,0 0.4335937,0.01171875 0.6328125,0.01171875 0.2226562,0 0.4453125,0.0234375 0.65625,0.0234375 0.070312,0 0.1992187,0 0.1992187,-0.19921875 0,-0.10546875 -0.09375,-0.10546875 -0.28125,-0.10546875 -0.375,0 -0.6445312,0 -0.6445312,-0.1875 0,-0.0585938 0.011719,-0.10546875 0.023437,-0.1640625 L 3.0595938,-3.3879844 H 6.09475 c -0.4101562,1.6523438 -0.6445312,2.60156252 -0.6796875,2.75390627 -0.1054687,0.31640625 -0.2929687,0.328125 -0.9140625,0.328125 -0.1523437,0 -0.234375,0 -0.234375,0.19921875 0,0.10546875 0.1171875,0.10546875 0.140625,0.10546875 0.28125,0 0.984375,-0.03515625 1.265625,-0.03515625 0.2109375,0 0.421875,0.01171875 0.6328125,0.01171875 0.2226563,0 0.4335938,0.0234375 0.6445313,0.0234375 0.082031,0 0.1992187,0 0.1992187,-0.19921875 0,-0.10546875 -0.082031,-0.10546875 -0.2695312,-0.10546875 -0.375,0 -0.65625,0 -0.65625,-0.1875 0,-0.0585938 0.023437,-0.10546875 0.035156,-0.1640625 z m 0,0"
         style="fill:#000000;fill-opacity:1;fill-rule:nonzero;stroke:none" />
      <path
         id="path9"
         d="m 11.877953,-0.7336875 c 0,-0.7617188 -0.09375,-1.3125 -0.410156,-1.8046875 -0.222656,-0.3164063 -0.644531,-0.5976563 -1.207031,-0.5976563 -1.6171879,0 -1.6171879,1.8984375 -1.6171879,2.4023438 0,0.50390625 0,2.3671875 1.6171879,2.3671875 1.617187,0 1.617187,-1.86328125 1.617187,-2.3671875 z m -1.617187,2.1679687 c -0.3164066,0 -0.7500004,-0.1875 -0.8906254,-0.7617187 -0.09375,-0.41015625 -0.09375,-0.984375 -0.09375,-1.5 0,-0.5039063 0,-1.03125 0.1054688,-1.4179688 0.1523437,-0.5507812 0.5976562,-0.6914062 0.8789066,-0.6914062 0.375,0 0.738281,0.2226562 0.867187,0.6328125 0.105469,0.375 0.117188,0.8789062 0.117188,1.4765625 0,0.515625 0,1.04296875 -0.09375,1.4765625 -0.140625,0.6328125 -0.609375,0.7851562 -0.890625,0.7851562 z m 0,0"
         style="fill:#000000;fill-opacity:1;fill-rule:nonzero;stroke:none" />
    </g>
    <path
       id="path10"
       d="M -40.75183,-0.16605 H -17.6382"
       style="fill:none;stroke:#000000;stroke-width:0.39848;stroke-linecap:butt;stroke-linejoin:miter;stroke-miterlimit:10;stroke-dasharray:none;stroke-opacity:1"
       transform="matrix(1.3333333,0,0,-1.3333333,126.35867,14.029333)" />
    <path
       id="path11"
       d="M -2.07213,2.39091 C -1.69356,0.95633 -0.84995,0.27893 0,0 -0.84995,-0.27893 -1.69356,-0.95633 -2.07213,-2.39091"
       style="fill:none;stroke:#000000;stroke-width:0.39848;stroke-linecap:round;stroke-linejoin:round;stroke-miterlimit:10;stroke-dasharray:none;stroke-opacity:1"
       transform="matrix(1.3333333,0,0,-1.3333333,103.10673,14.250733)" />
    <path
       id="path12"
       d="M 4.48875,-0.16605 H 27.60239"
       style="fill:none;stroke:#000000;stroke-width:0.39848;stroke-linecap:butt;stroke-linejoin:miter;stroke-miterlimit:10;stroke-dasharray:none;stroke-opacity:1"
       transform="matrix(1.3333333,0,0,-1.3333333,126.35867,14.029333)" />
    <path
       id="path13"
       d="M -2.07213,2.39091 C -1.69356,0.95633 -0.84995,0.27893 0,0 -0.84995,-0.27893 -1.69356,-0.95633 -2.07213,-2.39091"
       style="fill:none;stroke:#000000;stroke-width:0.39848;stroke-linecap:round;stroke-linejoin:round;stroke-miterlimit:10;stroke-dasharray:none;stroke-opacity:1"
       transform="matrix(1.3333333,0,0,-1.3333333,163.42752,14.250733)" />
    <path
       id="path14"
       d="M 49.72935,-0.16605 H 72.84299"
       style="fill:none;stroke:#000000;stroke-width:0.39848;stroke-linecap:butt;stroke-linejoin:miter;stroke-miterlimit:10;stroke-dasharray:none;stroke-opacity:1"
       transform="matrix(1.3333333,0,0,-1.3333333,126.35867,14.029333)" />
    <path
       id="path15"
       d="M -2.07213,2.39091 C -1.69356,0.95633 -0.84995,0.27893 0,0 -0.84995,-0.27893 -1.69356,-0.95633 -2.07213,-2.39091"
       style="fill:none;stroke:#000000;stroke-width:0.39848;stroke-linecap:round;stroke-linejoin:round;stroke-miterlimit:10;stroke-dasharray:none;stroke-opacity:1"
       transform="matrix(1.3333333,0,0,-1.3333333,223.74832,14.250733)" />
    <path
       id="path16"
       d="m 2.8348594,-2.7546016 h 0.6796875 c 0.140625,0 0.234375,0 0.234375,-0.1523437 0,-0.09375 -0.09375,-0.09375 -0.2109375,-0.09375 h -0.65625 c 0.1640625,-0.890625 0.2226562,-1.2070313 0.28125,-1.4179688 0.035156,-0.1523437 0.1875,-0.2929687 0.3515625,-0.2929687 0,0 0.1992187,0 0.328125,0.082031 -0.2929688,0.09375 -0.3046875,0.3398438 -0.3046875,0.3867188 0,0.1523437 0.1171875,0.2578125 0.2695312,0.2578125 0.1992188,0 0.3984375,-0.1640625 0.3984375,-0.4335938 0,-0.3164062 -0.3398437,-0.4921875 -0.6914062,-0.4921875 -0.3046875,0 -0.6445313,0.1757813 -0.84375,0.5273438 -0.1289063,0.2578125 -0.1875,0.5742187 -0.3398438,1.3828125 H 1.7801719 c -0.140625,0 -0.2226563,0 -0.2226563,0.1523437 0,0.09375 0.082031,0.09375 0.2109375,0.09375 h 0.515625 c 0,0.046875 -0.4453125,2.55468754 -0.609375,3.29296879 -0.035156,0.1640625 -0.1523437,0.69140621 -0.4921875,0.69140621 0,0 -0.1757812,0 -0.30468747,-0.082031 0.28124997,-0.09375 0.30468747,-0.35156251 0.30468747,-0.38671876 0,-0.15234375 -0.1171875,-0.2578125 -0.28124997,-0.2578125 -0.1875,0 -0.3984375,0.1640625 -0.3984375,0.421875 0,0.31640626 0.328125,0.49218746 0.67968747,0.49218746 0.4453125,0 0.75,-0.45703121 0.84375,-0.60937496 0.2460938,-0.46875 0.4101563,-1.32421875 0.421875,-1.40625 z m 0,0"
       style="fill:#000000;fill-opacity:1;fill-rule:nonzero;stroke:none"
       aria-label="f"
       transform="matrix(1.3333333,0,0,1.3333333,205.228,9.3173333)" />
  </g>
</svg>
